<svg width="57" height="56" viewBox="0 0 57 56" fill="none" xmlns="http://www.w3.org/2000/svg">
<path d="M46.8508 8.8667V47.1334H38.3786V21.5947L46.8508 8.8667Z" fill="#222634"/>
<path d="M10.1445 8.8667V47.1334H18.6166V21.5947L10.1445 8.8667Z" fill="#222634"/>
<path d="M33.187 18.1996L28.4635 8.8667L23.7545 18.1752C19.2162 27.8295 14.6779 37.479 10.1445 47.1334H18.6166L19.1236 46.1251H37.8765C38.0471 46.4612 38.2177 46.7973 38.3834 47.1334H46.8556C42.2978 37.4888 37.7448 27.8442 33.187 18.1996ZM23.3743 37.6592C25.0756 34.2739 26.7768 30.8885 28.4781 27.5081C30.1842 30.8934 31.8952 34.2788 33.6014 37.6592H23.3743Z" fill="#51B7AF"/>
</svg>
