<svg width="120" height="162" viewBox="0 0 120 162" fill="none" xmlns="http://www.w3.org/2000/svg">
<path d="M36.4224 81.6221C36.4224 80.7936 37.0939 80.1221 37.9224 80.1221H82.0773C82.9057 80.1221 83.5773 80.7936 83.5773 81.6221V158.956C83.5773 160.2 82.1501 160.904 81.1635 160.146L60.5482 144.31C60.0024 143.89 59.2413 143.896 58.7022 144.324L38.8546 160.07C37.8715 160.85 36.4224 160.15 36.4224 158.895V81.6221Z" fill="url(#paint0_linear_1050_11591)"/>
<path fill-rule="evenodd" clip-rule="evenodd" d="M79.0138 158.495L77.4927 157.326V94.3943H79.0138V158.495Z" fill="#222634"/>
<path fill-rule="evenodd" clip-rule="evenodd" d="M41.7467 157.776L40.2256 158.983V94.3943H41.7467V157.776Z" fill="#222634"/>
<g filter="url(#filter0_d_1050_11591)">
<path d="M60 2L67.6872 7.39753L76.6869 4.61032L82.3091 12.0898L91.7404 12.1858L94.7472 21.0151L103.687 23.9848L103.784 33.2997L111.357 38.8524L108.535 47.741L114 55.3333L108.535 62.9256L111.357 71.8142L103.784 77.367L103.687 86.6819L94.7472 89.6516L91.7404 98.4809L82.3091 98.5768L76.6869 106.056L67.6872 103.269L60 108.667L52.3128 103.269L43.3131 106.056L37.6909 98.5768L28.2596 98.4809L25.2528 89.6516L16.3131 86.6819L16.2159 77.367L8.64295 71.8142L11.465 62.9256L6 55.3333L11.465 47.741L8.64295 38.8524L16.2159 33.2997L16.3131 23.9848L25.2528 21.0151L28.2596 12.1858L37.6909 12.0898L43.3131 4.61032L52.3128 7.39753L60 2Z" fill="url(#paint1_linear_1050_11591)"/>
</g>
<path d="M102.216 55.3331C102.216 78.3538 83.3197 97.0238 59.9998 97.0238C36.6798 97.0238 17.7832 78.3538 17.7832 55.3331C17.7832 32.3123 36.6798 13.6423 59.9998 13.6423C83.3197 13.6423 102.216 32.3123 102.216 55.3331Z" stroke="url(#paint2_linear_1050_11591)" stroke-width="0.75"/>
<path d="M99.1743 55.3335C99.1743 76.6948 81.6397 94.0195 60 94.0195C38.3602 94.0195 20.8257 76.6948 20.8257 55.3335C20.8257 33.9722 38.3602 16.6475 60 16.6475C81.6397 16.6475 99.1743 33.9722 99.1743 55.3335Z" stroke="url(#paint3_linear_1050_11591)" stroke-width="0.75"/>
<path d="M60 31.2961L61.3661 35.4485H65.7867L62.2104 38.0148L63.5764 42.1672L60 39.6009L56.4237 42.1672L57.7897 38.0148L54.2133 35.4485H58.634L60 31.2961Z" fill="#222634"/>
<path d="M47.8313 34.3005L48.5143 36.3767H50.7247L48.9365 37.6599L49.6195 39.7361L47.8313 38.4529L46.0431 39.7361L46.7262 37.6599L44.938 36.3767H47.1483L47.8313 34.3005Z" fill="#222634"/>
<path d="M38.7044 34.3005L39.3874 36.3767H41.5977L39.8095 37.6599L40.4926 39.7361L38.7044 38.4529L36.9162 39.7361L37.5992 37.6599L35.811 36.3767H38.0213L38.7044 34.3005Z" fill="#222634"/>
<path d="M72.1692 34.3005L72.8522 36.3767H75.0626L73.2744 37.6599L73.9574 39.7361L72.1692 38.4529L70.381 39.7361L71.064 37.6599L69.2759 36.3767H71.4862L72.1692 34.3005Z" fill="#222634"/>
<path d="M81.2957 34.3005L81.9787 36.3767H84.189L82.4008 37.6599L83.0839 39.7361L81.2957 38.4529L79.5075 39.7361L80.1905 37.6599L78.4023 36.3767H80.6126L81.2957 34.3005Z" fill="#222634"/>
<rect x="36.4224" y="49.3242" width="47.1549" height="0.751174" fill="#222634"/>
<path d="M26.1262 67.9976L24.9371 58.9505H26.6302L27.5091 66.8085H27.7417L28.8791 58.9505H31.8258L32.9632 66.8085H33.1958L34.0747 58.9505H35.7678L34.5787 67.9976H31.632L30.4688 59.9586H30.2361L29.0729 67.9976H26.1262ZM36.154 67.9976L38.5321 58.9505H41.5047L43.8828 67.9976H42.125L41.6339 66.0072H38.4028L37.9117 67.9976H36.154ZM38.8035 64.4304H41.2333L40.1347 60.0232H39.902L38.8035 64.4304ZM48.0176 68.1785C47.3973 68.1785 46.8329 68.0406 46.3246 67.7649C45.8248 67.4806 45.4242 67.0713 45.1226 66.5371C44.8296 65.9943 44.6832 65.3351 44.6832 64.5597V62.3884C44.6832 61.2252 45.0106 60.3334 45.6654 59.713C46.3202 59.084 47.2077 58.7696 48.3278 58.7696C49.4393 58.7696 50.2966 59.0668 50.8998 59.6613C51.5115 60.2472 51.8174 61.0442 51.8174 62.0523V62.104H50.1372V62.0006C50.1372 61.6818 50.0683 61.3932 49.9305 61.1347C49.8012 60.8762 49.603 60.6737 49.3359 60.5273C49.0688 60.3722 48.7328 60.2946 48.3278 60.2946C47.7247 60.2946 47.2508 60.4799 46.9062 60.8504C46.5615 61.2209 46.3892 61.7249 46.3892 62.3625V64.5855C46.3892 65.2145 46.5615 65.7229 46.9062 66.1106C47.2508 66.4897 47.7333 66.6793 48.3537 66.6793C48.9741 66.6793 49.4264 66.5156 49.7107 66.1881C49.9951 65.8607 50.1372 65.4471 50.1372 64.9474V64.8182H47.9918V63.3706H51.8174V67.9976H50.2406V67.1316H50.008C49.9477 67.2781 49.8486 67.4332 49.7107 67.5969C49.5815 67.7606 49.3833 67.8985 49.1162 68.0105C48.8491 68.1225 48.4829 68.1785 48.0176 68.1785ZM52.8269 67.9976L55.205 58.9505H58.1776L60.5557 67.9976H58.798L58.3069 66.0072H55.0758L54.5846 67.9976H52.8269ZM55.4764 64.4304H57.9062L56.8076 60.0232H56.575L55.4764 64.4304ZM61.3801 67.9976V66.4983H62.5692V60.4497H61.3801V58.9505H65.1024C66.3173 58.9505 67.2392 59.2607 67.8682 59.881C68.5058 60.4928 68.8246 61.4061 68.8246 62.621V64.327C68.8246 65.5419 68.5058 66.4596 67.8682 67.0799C67.2392 67.6917 66.3173 67.9976 65.1024 67.9976H61.3801ZM64.2752 66.4466H65.1282C65.8175 66.4466 66.3216 66.2657 66.6404 65.9038C66.9592 65.5419 67.1186 65.0336 67.1186 64.3787V62.5693C67.1186 61.9059 66.9592 61.3975 66.6404 61.0442C66.3216 60.6824 65.8175 60.5014 65.1282 60.5014H64.2752V66.4466ZM70.2465 67.9976V58.9505H76.0624V60.5014H71.9525V62.6598H75.7006V64.2107H71.9525V66.4466H76.14V67.9976H70.2465ZM77.4028 67.9976V58.9505H80.5693L82.1332 66.8344H82.3658L83.9296 58.9505H87.0961V67.9976H85.4418V60.2042H85.2092L83.6582 67.9976H80.8407L79.2898 60.2042H79.0572V67.9976H77.4028ZM91.1264 67.9976V64.8828L88.0504 58.9505H89.9503L91.8631 62.8278H92.0957L94.0085 58.9505H95.9084L92.8324 64.8828V67.9976H91.1264Z" fill="#222634"/>
<rect x="36.4224" y="79.3708" width="47.1549" height="0.751174" fill="#222634"/>
<defs>
<filter id="filter0_d_1050_11591" x="0.75" y="0.5" width="118.5" height="117.167" filterUnits="userSpaceOnUse" color-interpolation-filters="sRGB">
<feFlood flood-opacity="0" result="BackgroundImageFix"/>
<feColorMatrix in="SourceAlpha" type="matrix" values="0 0 0 0 0 0 0 0 0 0 0 0 0 0 0 0 0 0 127 0" result="hardAlpha"/>
<feOffset dy="3.75"/>
<feGaussianBlur stdDeviation="2.625"/>
<feComposite in2="hardAlpha" operator="out"/>
<feColorMatrix type="matrix" values="0 0 0 0 0 0 0 0 0 0 0 0 0 0 0 0 0 0 0.15 0"/>
<feBlend mode="normal" in2="BackgroundImageFix" result="effect1_dropShadow_1050_11591"/>
<feBlend mode="normal" in="SourceGraphic" in2="effect1_dropShadow_1050_11591" result="shape"/>
</filter>
<linearGradient id="paint0_linear_1050_11591" x1="42.3167" y1="145.551" x2="89.7379" y2="119.312" gradientUnits="userSpaceOnUse">
<stop stop-color="#CE9B48"/>
<stop offset="0.302083" stop-color="#E2B866"/>
<stop offset="0.645833" stop-color="#F5D585"/>
<stop offset="1" stop-color="#CB9743"/>
</linearGradient>
<linearGradient id="paint1_linear_1050_11591" x1="19.5" y1="87.2381" x2="92.3877" y2="16.3334" gradientUnits="userSpaceOnUse">
<stop stop-color="#B88738"/>
<stop offset="0.302083" stop-color="#E2B866"/>
<stop offset="0.645833" stop-color="#F5D585"/>
<stop offset="1" stop-color="#CB9743"/>
</linearGradient>
<linearGradient id="paint2_linear_1050_11591" x1="17.4082" y1="104.911" x2="78.0282" y2="21.9369" gradientUnits="userSpaceOnUse">
<stop stop-color="#CE9B48"/>
<stop offset="0.302083" stop-color="#E2B866"/>
<stop offset="0.645833" stop-color="#F5D585"/>
<stop offset="1" stop-color="#CB9743"/>
</linearGradient>
<linearGradient id="paint3_linear_1050_11591" x1="20.4507" y1="101.37" x2="76.7407" y2="24.3228" gradientUnits="userSpaceOnUse">
<stop stop-color="#CE9B48"/>
<stop offset="0.302083" stop-color="#E2B866"/>
<stop offset="0.645833" stop-color="#F5D585"/>
<stop offset="1" stop-color="#CB9743"/>
</linearGradient>
</defs>
</svg>
