<svg width="20" height="20" viewBox="0 0 20 20" fill="none" xmlns="http://www.w3.org/2000/svg">
<path d="M7.5 15.625C7.5 15.2798 7.77982 15 8.125 15H11.875C12.2202 15 12.5 15.2798 12.5 15.625C12.5 15.9702 12.2202 16.25 11.875 16.25H8.125C7.77982 16.25 7.5 15.9702 7.5 15.625Z" fill="#51B7AF"/>
<path d="M3.75 10.0769C3.75 8.45052 5.29339 7.20577 6.91274 7.3573C7.79719 7.44006 8.83865 7.5 10 7.5C11.1614 7.5 12.2028 7.44006 13.0873 7.3573C14.7066 7.20577 16.25 8.45052 16.25 10.0769V11.524C16.25 12.0976 15.8594 12.5938 15.2943 12.692C14.238 12.8757 12.3682 13.125 10 13.125C7.63175 13.125 5.76205 12.8757 4.70573 12.692C4.14062 12.5938 3.75 12.0976 3.75 11.524V10.0769ZM9.42744 9.04376C9.32885 9.02698 9.22819 9.05839 9.15665 9.12827L8.00536 10.2528C7.09651 10.1981 6.30763 10.1125 5.66745 10.0248C5.49646 10.0013 5.33884 10.1209 5.3154 10.2919C5.29195 10.4629 5.41156 10.6205 5.58255 10.644C6.26965 10.7382 7.12247 10.8296 8.10754 10.8848C8.19507 10.8897 8.28064 10.8576 8.34335 10.7963L9.28582 9.87577L10.345 12.0137C10.3902 12.1049 10.4769 12.1684 10.5775 12.1839C10.6781 12.1993 10.78 12.1648 10.8504 12.0914L12.0155 10.8776C12.9487 10.822 13.7591 10.7342 14.4174 10.644C14.5884 10.6205 14.708 10.4629 14.6846 10.2919C14.6612 10.1209 14.5035 10.0013 14.3326 10.0248C13.6604 10.1169 12.8243 10.2066 11.8575 10.2607C11.7786 10.2651 11.7043 10.2993 11.6496 10.3563L10.7076 11.3377L9.65502 9.2131C9.61063 9.12349 9.52603 9.06054 9.42744 9.04376Z" fill="#51B7AF"/>
<path d="M10.625 2.33277C10.9986 2.11664 11.25 1.71268 11.25 1.25C11.25 0.559644 10.6904 0 10 0C9.30964 0 8.75 0.559644 8.75 1.25C8.75 1.71268 9.00137 2.11664 9.375 2.33277V3.75H6.875C3.7684 3.75 1.25 6.2684 1.25 9.375V10C0.559644 10 0 10.5596 0 11.25V13.75C0 14.4404 0.559644 15 1.25 15V16.25C1.25 17.6307 2.36929 18.75 3.75 18.75H16.25C17.6307 18.75 18.75 17.6307 18.75 16.25V15C19.4404 15 20 14.4404 20 13.75V11.25C20 10.5596 19.4404 10 18.75 10V9.375C18.75 6.2684 16.2316 3.75 13.125 3.75H10.625V2.33277ZM17.5 9.375V16.25C17.5 16.9404 16.9404 17.5 16.25 17.5H3.75C3.05964 17.5 2.5 16.9404 2.5 16.25V9.375C2.5 6.95875 4.45875 5 6.875 5H13.125C15.5412 5 17.5 6.95875 17.5 9.375Z" fill="#51B7AF"/>
</svg>
