<svg width="130" height="130" viewBox="0 0 130 130" fill="none" xmlns="http://www.w3.org/2000/svg">
<path d="M78.6434 38.1511V66.1539H72.457V47.4652L78.6434 38.1511Z" fill="#222634"/>
<path d="M51.8403 38.1511V66.1539H58.0267V47.4652L51.8403 38.1511Z" fill="#222634"/>
<path d="M68.6658 44.9807L65.2167 38.1511L61.7782 44.9629C58.4644 52.0277 55.1506 59.0891 51.8403 66.1539H58.0267L58.3968 65.416H72.09C72.2145 65.662 72.3391 65.908 72.4601 66.1539H78.6464C75.3184 59.0962 71.9939 52.0385 68.6658 44.9807ZM61.5006 59.221C62.7429 56.7437 63.9852 54.2663 65.2274 51.7926C66.4731 54.2699 67.7226 56.7471 68.9684 59.221H61.5006Z" fill="#51B7AF"/>
<path d="M21.4848 86.4309L18.2178 75.3733H19.6083L22.3392 85.2078L24.9361 75.3733H26.4607L29.0575 85.2413L31.7884 75.3733H33.1119L29.8617 86.4309H28.2031L26.2429 79.2602L25.6732 76.7639H25.6565L25.0868 79.2602L23.1434 86.4309H21.4848ZM43.6652 86.4309H42.2411L41.0683 83.3649H36.0589L34.8862 86.4309H33.4788L37.7846 75.3733H39.3762L43.6652 86.4309ZM36.5448 82.1084H40.5824L38.5552 76.6634L36.5448 82.1084ZM49.993 86.5984C48.9431 86.5984 48.0328 86.3695 47.2621 85.9115C46.5025 85.4424 45.9106 84.7835 45.4862 83.9345C45.073 83.0857 44.8663 82.0749 44.8663 80.9021C44.8663 79.7293 45.0841 78.7186 45.5197 77.8697C45.9664 77.0208 46.5863 76.3674 47.3794 75.9095C48.1724 75.4404 49.0826 75.2058 50.1102 75.2058C51.2048 75.2058 52.0928 75.4125 52.7741 75.8257C53.4666 76.239 54.025 76.8757 54.4495 77.7356L53.2264 78.4058C52.9808 77.7691 52.5898 77.2889 52.0537 76.965C51.5287 76.6299 50.8809 76.4623 50.1102 76.4623C49.3619 76.4623 48.6973 76.6411 48.1165 76.9985C47.5469 77.3448 47.0945 77.8529 46.7595 78.5231C46.4355 79.1821 46.2736 79.9751 46.2736 80.9021C46.2736 81.8292 46.4133 82.6278 46.6924 83.2979C46.9829 83.9569 47.4072 84.4652 47.9657 84.8225C48.5354 85.1688 49.2279 85.3419 50.0432 85.3419C50.5012 85.3419 50.9255 85.2861 51.3165 85.1743C51.7186 85.0516 52.0648 84.8728 52.3552 84.6382C52.6568 84.4037 52.8914 84.1077 53.0589 83.7503C53.2264 83.3929 53.3102 82.9741 53.3102 82.4937V82.1084H49.7919V80.8518H54.5332V86.4309H53.4777L53.4107 84.3701L53.6955 84.4204C53.4051 85.1129 52.9473 85.6491 52.3217 86.0288C51.6962 86.4086 50.92 86.5984 49.993 86.5984ZM66.4726 86.4309H65.0485L63.8758 83.3649H58.8664L57.6936 86.4309H56.2863L60.592 75.3733H62.1836L66.4726 86.4309ZM59.3522 82.1084H63.3899L61.3627 76.6634L59.3522 82.1084ZM72.2888 75.3733C74.02 75.3733 75.377 75.8537 76.36 76.8142C77.354 77.7636 77.8511 79.1262 77.8511 80.9021C77.8511 82.678 77.354 84.0463 76.36 85.0068C75.377 85.9563 74.02 86.4309 72.2888 86.4309H68.7203V75.3733H72.2888ZM72.4229 85.1743C73.6849 85.1743 74.6679 84.8002 75.3715 84.0518C76.0863 83.2924 76.4438 82.2424 76.4438 80.9021C76.4438 79.5618 76.0863 78.5176 75.3715 77.7691C74.6679 77.0097 73.6849 76.6299 72.4229 76.6299H70.0606V85.1743H72.4229ZM80.7947 86.4309V75.3733H88.5518V76.6299H82.135V80.1984H87.1277V81.455H82.135V85.1743H88.8031V86.4309H80.7947ZM102.167 75.3733V86.4309H100.894V79.478L101.045 76.5629H101.028L97.3926 86.4309H96.2534L92.6178 76.5629H92.601L92.7518 79.478V86.4309H91.4785V75.3733H93.5392L95.9686 82.0916L96.8062 84.856H96.8398L97.6942 82.1084L100.107 75.3733H102.167ZM113.385 75.3733L109.431 82.1084V86.4309H108.09V82.1084L104.136 75.3733H105.728L107.872 79.1597L108.76 80.7346L109.648 79.1597L111.793 75.3733H113.385Z" fill="#222634"/>
</svg>
