<svg width="196" height="69" viewBox="0 0 196 69" fill="none" xmlns="http://www.w3.org/2000/svg">
<path d="M57.3463 64.0002L56.1423 60.9062H52.1803L50.9903 64.0002H49.7163L53.6223 53.9622H54.7563L58.6483 64.0002H57.3463ZM54.6443 56.7622C54.6163 56.6876 54.5696 56.5522 54.5043 56.3562C54.439 56.1602 54.3736 55.9596 54.3083 55.7542C54.2523 55.5396 54.2056 55.3762 54.1683 55.2642C54.1216 55.4509 54.0703 55.6422 54.0143 55.8382C53.9676 56.0249 53.9163 56.1976 53.8603 56.3562C53.8136 56.5149 53.7716 56.6502 53.7343 56.7622L52.6003 59.7862H55.7643L54.6443 56.7622ZM62.5077 64.1402C61.5744 64.1402 60.8277 63.8182 60.2677 63.1742C59.7077 62.5209 59.4277 61.5502 59.4277 60.2622C59.4277 58.9742 59.7077 58.0036 60.2677 57.3502C60.837 56.6876 61.5884 56.3562 62.5217 56.3562C62.9137 56.3562 63.2544 56.4076 63.5437 56.5102C63.833 56.6036 64.085 56.7342 64.2997 56.9022C64.5144 57.0702 64.6964 57.2569 64.8457 57.4622H64.9297C64.9204 57.3409 64.9017 57.1636 64.8737 56.9302C64.855 56.6876 64.8457 56.4962 64.8457 56.3562V53.3602H66.0777V64.0002H65.0837L64.9017 62.9922H64.8457C64.6964 63.2069 64.5144 63.4029 64.2997 63.5802C64.085 63.7482 63.8284 63.8836 63.5297 63.9862C63.2404 64.0889 62.8997 64.1402 62.5077 64.1402ZM62.7037 63.1182C63.497 63.1182 64.0524 62.9036 64.3697 62.4742C64.6964 62.0356 64.8597 61.3776 64.8597 60.5002V60.2762C64.8597 59.3429 64.7057 58.6289 64.3977 58.1342C64.0897 57.6302 63.5204 57.3782 62.6897 57.3782C62.027 57.3782 61.5277 57.6442 61.1917 58.1762C60.865 58.6989 60.7017 59.4036 60.7017 60.2902C60.7017 61.1862 60.865 61.8816 61.1917 62.3762C61.5277 62.8709 62.0317 63.1182 62.7037 63.1182ZM71.303 56.3702C72.2177 56.3702 72.8943 56.5709 73.333 56.9722C73.7717 57.3736 73.991 58.0129 73.991 58.8902V64.0002H73.095L72.857 62.9362H72.801C72.5863 63.2069 72.3623 63.4356 72.129 63.6222C71.905 63.7996 71.6437 63.9302 71.345 64.0142C71.0557 64.0982 70.701 64.1402 70.281 64.1402C69.833 64.1402 69.427 64.0609 69.063 63.9022C68.7083 63.7436 68.4283 63.5009 68.223 63.1742C68.0177 62.8382 67.915 62.4182 67.915 61.9142C67.915 61.1676 68.209 60.5936 68.797 60.1922C69.385 59.7816 70.2903 59.5576 71.513 59.5202L72.787 59.4782V59.0302C72.787 58.4049 72.6517 57.9709 72.381 57.7282C72.1103 57.4856 71.7277 57.3642 71.233 57.3642C70.841 57.3642 70.4677 57.4249 70.113 57.5462C69.7583 57.6582 69.427 57.7889 69.119 57.9382L68.741 57.0142C69.0677 56.8369 69.455 56.6876 69.903 56.5662C70.351 56.4356 70.8177 56.3702 71.303 56.3702ZM71.667 60.3742C70.7337 60.4116 70.085 60.5609 69.721 60.8222C69.3663 61.0836 69.189 61.4522 69.189 61.9282C69.189 62.3482 69.315 62.6562 69.567 62.8522C69.8283 63.0482 70.1597 63.1462 70.561 63.1462C71.1957 63.1462 71.723 62.9736 72.143 62.6282C72.563 62.2736 72.773 61.7322 72.773 61.0042V60.3322L71.667 60.3742ZM84.5406 56.3562C85.39 56.3562 86.0246 56.5756 86.4446 57.0142C86.8646 57.4436 87.0746 58.1436 87.0746 59.1142V64.0002H85.8566V59.1702C85.8566 58.5822 85.7306 58.1389 85.4786 57.8402C85.236 57.5416 84.8533 57.3922 84.3306 57.3922C83.6026 57.3922 83.08 57.6022 82.7626 58.0222C82.4546 58.4422 82.3006 59.0536 82.3006 59.8562V64.0002H81.0826V59.1702C81.0826 58.7782 81.0266 58.4516 80.9146 58.1902C80.8026 57.9196 80.6346 57.7189 80.4106 57.5882C80.1866 57.4576 79.8973 57.3922 79.5426 57.3922C79.0386 57.3922 78.642 57.4996 78.3526 57.7142C78.0633 57.9196 77.8533 58.2229 77.7226 58.6242C77.6013 59.0256 77.5406 59.5202 77.5406 60.1082V64.0002H76.3086V56.4962H77.3026L77.4846 57.5182H77.5546C77.7133 57.2569 77.9046 57.0422 78.1286 56.8742C78.362 56.6969 78.6186 56.5662 78.8986 56.4822C79.1786 56.3982 79.468 56.3562 79.7666 56.3562C80.3453 56.3562 80.826 56.4589 81.2086 56.6642C81.6006 56.8696 81.8853 57.1869 82.0626 57.6162H82.1326C82.3846 57.1869 82.7253 56.8696 83.1546 56.6642C83.5933 56.4589 84.0553 56.3562 84.5406 56.3562ZM91.7833 66.6602C91.5593 66.6602 91.3633 66.6416 91.1953 66.6042C91.0273 66.5762 90.878 66.5342 90.7473 66.4782V65.4142C90.8967 65.4516 91.0553 65.4842 91.2233 65.5122C91.3913 65.5402 91.5687 65.5542 91.7553 65.5542C91.9887 65.5542 92.208 65.5076 92.4133 65.4142C92.628 65.3209 92.8007 65.1576 92.9313 64.9242C93.062 64.6909 93.1273 64.3642 93.1273 63.9442V54.0042H94.3873V63.8462C94.3873 64.4902 94.28 65.0176 94.0653 65.4282C93.8507 65.8482 93.5473 66.1562 93.1553 66.3522C92.7633 66.5576 92.306 66.6602 91.7833 66.6602ZM103.381 60.2342C103.381 60.8596 103.297 61.4149 103.129 61.9002C102.971 62.3762 102.737 62.7822 102.429 63.1182C102.131 63.4542 101.762 63.7109 101.323 63.8882C100.894 64.0562 100.413 64.1402 99.8815 64.1402C99.3868 64.1402 98.9295 64.0562 98.5095 63.8882C98.0895 63.7109 97.7255 63.4542 97.4175 63.1182C97.1095 62.7822 96.8668 62.3762 96.6895 61.9002C96.5215 61.4149 96.4375 60.8596 96.4375 60.2342C96.4375 59.4036 96.5775 58.7036 96.8575 58.1342C97.1375 57.5556 97.5388 57.1169 98.0615 56.8182C98.5841 56.5102 99.2048 56.3562 99.9235 56.3562C100.605 56.3562 101.202 56.5102 101.715 56.8182C102.238 57.1169 102.644 57.5556 102.933 58.1342C103.232 58.7036 103.381 59.4036 103.381 60.2342ZM97.7115 60.2342C97.7115 60.8222 97.7861 61.3356 97.9355 61.7742C98.0941 62.2036 98.3368 62.5349 98.6635 62.7682C98.9901 63.0016 99.4055 63.1182 99.9095 63.1182C100.413 63.1182 100.829 63.0016 101.155 62.7682C101.482 62.5349 101.72 62.2036 101.869 61.7742C102.028 61.3356 102.107 60.8222 102.107 60.2342C102.107 59.6369 102.028 59.1282 101.869 58.7082C101.711 58.2882 101.468 57.9662 101.141 57.7422C100.824 57.5089 100.409 57.3922 99.8955 57.3922C99.1301 57.3922 98.5748 57.6442 98.2295 58.1482C97.8841 58.6522 97.7115 59.3476 97.7115 60.2342ZM108.946 56.3562C109.842 56.3562 110.519 56.5756 110.976 57.0142C111.433 57.4436 111.662 58.1436 111.662 59.1142V64.0002H110.444V59.1982C110.444 58.5916 110.309 58.1389 110.038 57.8402C109.767 57.5416 109.343 57.3922 108.764 57.3922C107.933 57.3922 107.359 57.6256 107.042 58.0922C106.725 58.5589 106.566 59.2309 106.566 60.1082V64.0002H105.334V56.4962H106.328L106.51 57.5182H106.58C106.748 57.2569 106.953 57.0422 107.196 56.8742C107.448 56.6969 107.723 56.5662 108.022 56.4822C108.321 56.3982 108.629 56.3562 108.946 56.3562ZM115.22 56.4822C115.22 56.6596 115.211 56.8416 115.192 57.0282C115.183 57.2149 115.169 57.3829 115.15 57.5322H115.234C115.393 57.2709 115.594 57.0562 115.836 56.8882C116.079 56.7202 116.35 56.5942 116.648 56.5102C116.947 56.4169 117.255 56.3702 117.572 56.3702C118.179 56.3702 118.683 56.4682 119.084 56.6642C119.495 56.8509 119.803 57.1449 120.008 57.5462C120.214 57.9476 120.316 58.4702 120.316 59.1142V64.0002H119.098V59.1982C119.098 58.5916 118.963 58.1389 118.692 57.8402C118.422 57.5416 117.997 57.3922 117.418 57.3922C116.858 57.3922 116.42 57.4996 116.102 57.7142C115.785 57.9196 115.556 58.2276 115.416 58.6382C115.286 59.0396 115.22 59.5342 115.22 60.1222V64.0002H113.988V53.3602H115.22V56.4822ZM127.529 61.9282C127.529 62.4136 127.407 62.8196 127.165 63.1462C126.922 63.4729 126.577 63.7202 126.129 63.8882C125.681 64.0562 125.149 64.1402 124.533 64.1402C124.01 64.1402 123.557 64.0982 123.175 64.0142C122.801 63.9302 122.47 63.8136 122.181 63.6642V62.5442C122.479 62.6936 122.839 62.8336 123.259 62.9642C123.688 63.0856 124.122 63.1462 124.561 63.1462C125.186 63.1462 125.639 63.0482 125.919 62.8522C126.199 62.6469 126.339 62.3762 126.339 62.0402C126.339 61.8536 126.287 61.6856 126.185 61.5362C126.082 61.3869 125.895 61.2376 125.625 61.0882C125.363 60.9389 124.985 60.7709 124.491 60.5842C124.005 60.3976 123.59 60.2109 123.245 60.0242C122.899 59.8376 122.633 59.6136 122.447 59.3522C122.26 59.0909 122.167 58.7549 122.167 58.3442C122.167 57.7096 122.423 57.2196 122.937 56.8742C123.459 56.5289 124.141 56.3562 124.981 56.3562C125.438 56.3562 125.863 56.4029 126.255 56.4962C126.656 56.5802 127.029 56.7016 127.375 56.8602L126.955 57.8402C126.749 57.7469 126.53 57.6676 126.297 57.6022C126.073 57.5276 125.844 57.4716 125.611 57.4342C125.377 57.3876 125.139 57.3642 124.897 57.3642C124.393 57.3642 124.005 57.4482 123.735 57.6162C123.473 57.7749 123.343 57.9942 123.343 58.2742C123.343 58.4796 123.403 58.6569 123.525 58.8062C123.646 58.9462 123.847 59.0862 124.127 59.2262C124.416 59.3569 124.799 59.5156 125.275 59.7022C125.751 59.8796 126.157 60.0616 126.493 60.2482C126.829 60.4349 127.085 60.6636 127.263 60.9342C127.44 61.1956 127.529 61.5269 127.529 61.9282ZM135.866 60.2342C135.866 60.8596 135.782 61.4149 135.614 61.9002C135.455 62.3762 135.222 62.7822 134.914 63.1182C134.615 63.4542 134.247 63.7109 133.808 63.8882C133.379 64.0562 132.898 64.1402 132.366 64.1402C131.871 64.1402 131.414 64.0562 130.994 63.8882C130.574 63.7109 130.21 63.4542 129.902 63.1182C129.594 62.7822 129.351 62.3762 129.174 61.9002C129.006 61.4149 128.922 60.8596 128.922 60.2342C128.922 59.4036 129.062 58.7036 129.342 58.1342C129.622 57.5556 130.023 57.1169 130.546 56.8182C131.069 56.5102 131.689 56.3562 132.408 56.3562C133.089 56.3562 133.687 56.5102 134.2 56.8182C134.723 57.1169 135.129 57.5556 135.418 58.1342C135.717 58.7036 135.866 59.4036 135.866 60.2342ZM130.196 60.2342C130.196 60.8222 130.271 61.3356 130.42 61.7742C130.579 62.2036 130.821 62.5349 131.148 62.7682C131.475 63.0016 131.89 63.1182 132.394 63.1182C132.898 63.1182 133.313 63.0016 133.64 62.7682C133.967 62.5349 134.205 62.2036 134.354 61.7742C134.513 61.3356 134.592 60.8222 134.592 60.2342C134.592 59.6369 134.513 59.1282 134.354 58.7082C134.195 58.2882 133.953 57.9662 133.626 57.7422C133.309 57.5089 132.893 57.3922 132.38 57.3922C131.615 57.3922 131.059 57.6442 130.714 58.1482C130.369 58.6522 130.196 59.3476 130.196 60.2342ZM141.43 56.3562C142.326 56.3562 143.003 56.5756 143.46 57.0142C143.918 57.4436 144.146 58.1436 144.146 59.1142V64.0002H142.928V59.1982C142.928 58.5916 142.793 58.1389 142.522 57.8402C142.252 57.5416 141.827 57.3922 141.248 57.3922C140.418 57.3922 139.844 57.6256 139.526 58.0922C139.209 58.5589 139.05 59.2309 139.05 60.1082V64.0002H137.818V56.4962H138.812L138.994 57.5182H139.064C139.232 57.2569 139.438 57.0422 139.68 56.8742C139.932 56.6969 140.208 56.5662 140.506 56.4822C140.805 56.3982 141.113 56.3562 141.43 56.3562Z" fill="#222634"/>
<rect x="0.999512" y="39" width="195" height="1" fill="#575767"/>
<path d="M39.0205 45.5455C51.3466 36.798 63.4329 28.2677 77.0201 21.5608C81.8252 19.1889 89.042 17.3556 93.1188 13.4297C97.9424 8.78483 95.1013 2.72021 88.9511 1.66213C79.8069 0.0889261 65.7201 5.16874 60.8396 13.348C57.381 19.1444 61.3393 28.121 67.9901 29.4876C76.8858 31.3155 89.9175 27.558 94.7124 19.4361C97.0473 15.4811 96.8371 5.41943 89.6049 7.01476C80.2334 9.082 76.9498 28.8504 80.6566 35.9843C83.2277 40.9324 89.5104 41.9376 94.5081 41.0509C104.621 39.2567 112.605 31.2456 119.678 24.4619C121.96 22.2728 125.841 16.8499 129.198 15.7587C131.437 15.0309 133.109 20.5039 133.488 21.4383C136.088 27.8485 137.88 34.5947 139.536 41.2961C139.653 41.7725 142.831 51.6448 141.497 53.1454C139.947 54.8888 112.708 26.6447 111.097 25.1974C97.2634 12.7661 79.5943 -1.28401 60.1859 7.01476C48.8934 11.8433 40.9891 25.546 43.5151 38.0273C45.5733 48.1971 66.2091 43.0527 71.8718 41.4187C85.8803 37.3764 99.3435 29.2614 114.121 28.1801C117.543 27.9297 120.673 30.1005 123.6 30.1005" stroke="#222634" stroke-linecap="round"/>
</svg>
