<svg width="72" height="73" viewBox="0 0 72 73" fill="none" xmlns="http://www.w3.org/2000/svg">
<path d="M48 21.5H54" stroke="#51B7AF" stroke-width="4.5" stroke-linecap="round" stroke-linejoin="round"/>
<path d="M45 30.5H54" stroke="#51B7AF" stroke-width="4.5" stroke-linecap="round" stroke-linejoin="round"/>
<path d="M22.7856 15.5V21.5" stroke="#51B7AF" stroke-width="4.5" stroke-linecap="round" stroke-linejoin="round"/>
<path d="M16.5 30.5V23.9C16.5 22.5745 17.5745 21.5 18.9 21.5H26.1C27.4255 21.5 28.5 22.5745 28.5 23.9V30.5" stroke="#51B7AF" stroke-width="4.5" stroke-linecap="round" stroke-linejoin="round"/>
<path d="M36 42.5V33.3C36 31.7536 34.7464 30.5 33.2 30.5H11.8C10.2536 30.5 9.00003 31.7536 9 33.3V63.5" stroke="#51B7AF" stroke-width="4.5" stroke-linecap="round" stroke-linejoin="round"/>
<path d="M18 42.5H27" stroke="#51B7AF" stroke-width="4.5" stroke-linecap="round" stroke-linejoin="round"/>
<path d="M18 51.5H27" stroke="#51B7AF" stroke-width="4.5" stroke-linecap="round" stroke-linejoin="round"/>
<path d="M66 50C66 54.9155 60.636 60.1664 57.576 62.7631C56.3675 63.7456 54.6355 63.7456 53.427 62.7631C50.364 60.1664 45 54.9155 45 50" stroke="#51B7AF" stroke-width="4.5" stroke-linecap="round" stroke-linejoin="round"/>
<path d="M55.497 49.22C55.0666 49.2217 54.7189 49.5716 54.72 50.002C54.7211 50.4324 55.0706 50.7806 55.501 50.78C55.9314 50.7795 56.28 50.4304 56.28 50C56.2811 49.7923 56.1989 49.5928 56.0517 49.4462C55.9045 49.2996 55.7047 49.2181 55.497 49.22" stroke="#51B7AF" stroke-width="4.5" stroke-linecap="round" stroke-linejoin="round"/>
<path d="M66 50V50C66 44.201 61.299 39.5 55.5 39.5V39.5C49.701 39.5 45 44.201 45 50V50" stroke="#51B7AF" stroke-width="4.5" stroke-linecap="round" stroke-linejoin="round"/>
<path d="M6 63.5H39" stroke="#51B7AF" stroke-width="4.5" stroke-linecap="round" stroke-linejoin="round"/>
<path d="M36 21.5003V17.7542C36 15.8784 37.1636 14.1994 38.92 13.5408L56.92 6.79092C58.3019 6.27272 59.8501 6.4651 61.0632 7.30575C62.2762 8.14641 63 9.52847 63 11.0044V30.5003" stroke="#51B7AF" stroke-width="4.5" stroke-linecap="round" stroke-linejoin="round"/>
</svg>
