<svg width="43" height="42" viewBox="0 0 43 42" fill="none" xmlns="http://www.w3.org/2000/svg">
<path fill-rule="evenodd" clip-rule="evenodd" d="M21.5 36C13.2157 36 6.5 29.2843 6.5 21C6.5 12.7157 13.2157 6 21.5 6C29.7843 6 36.5 12.7157 36.5 21C36.5 29.2843 29.7843 36 21.5 36Z" fill="#ABFE2C"/>
<path d="M3.5 21C3.5 30.9411 11.5589 39 21.5 39C31.4411 39 39.5 30.9411 39.5 21C39.5 11.0589 31.4411 3 21.5 3C11.5589 3 3.5 11.0589 3.5 21Z" stroke="#ABFE2C" stroke-opacity="0.3" stroke-width="6" stroke-linecap="round" stroke-linejoin="round"/>
<path d="M20.25 24.75L16.5 21" stroke="#00501E" stroke-width="2.5" stroke-linecap="round" stroke-linejoin="round"/>
<path d="M26.5 18.5L20.25 24.75" stroke="#00501E" stroke-width="2.5" stroke-linecap="round" stroke-linejoin="round"/>
</svg>
