<svg width="42" height="42" viewBox="0 0 42 42" fill="none" xmlns="http://www.w3.org/2000/svg">
<path fill-rule="evenodd" clip-rule="evenodd" d="M21 36C12.7157 36 6 29.2843 6 21C6 12.7157 12.7157 6 21 6C29.2843 6 36 12.7157 36 21C36 29.2843 29.2843 36 21 36Z" fill="#ABFE2C"/>
<path d="M3 21C3 30.9411 11.0589 39 21 39C30.9411 39 39 30.9411 39 21C39 11.0589 30.9411 3 21 3C11.0589 3 3 11.0589 3 21Z" stroke="#ABFE2C" stroke-opacity="0.3" stroke-width="6" stroke-linecap="round" stroke-linejoin="round"/>
<path d="M19.75 24.75L16 21" stroke="#00501E" stroke-width="2.5" stroke-linecap="round" stroke-linejoin="round"/>
<path d="M26 18.5L19.75 24.75" stroke="#00501E" stroke-width="2.5" stroke-linecap="round" stroke-linejoin="round"/>
</svg>
