<svg width="72" height="72" viewBox="0 0 72 72" fill="none" xmlns="http://www.w3.org/2000/svg">
<path d="M48 21H54" stroke="#222634" stroke-width="4.5" stroke-linecap="round" stroke-linejoin="round"/>
<path d="M45 30H54" stroke="#222634" stroke-width="4.5" stroke-linecap="round" stroke-linejoin="round"/>
<path d="M22.7856 15V21" stroke="#222634" stroke-width="4.5" stroke-linecap="round" stroke-linejoin="round"/>
<path d="M16.5 30V23.4C16.5 22.0745 17.5745 21 18.9 21H26.1C27.4255 21 28.5 22.0745 28.5 23.4V30" stroke="#222634" stroke-width="4.5" stroke-linecap="round" stroke-linejoin="round"/>
<path d="M36 42V32.8C36 31.2536 34.7464 30 33.2 30H11.8C10.2536 30 9.00003 31.2536 9 32.8V63" stroke="#222634" stroke-width="4.5" stroke-linecap="round" stroke-linejoin="round"/>
<path d="M18 42H27" stroke="#222634" stroke-width="4.5" stroke-linecap="round" stroke-linejoin="round"/>
<path d="M18 51H27" stroke="#222634" stroke-width="4.5" stroke-linecap="round" stroke-linejoin="round"/>
<path d="M66 49.5C66 54.4155 60.636 59.6664 57.576 62.2631C56.3675 63.2456 54.6355 63.2456 53.427 62.2631C50.364 59.6664 45 54.4155 45 49.5" stroke="#222634" stroke-width="4.5" stroke-linecap="round" stroke-linejoin="round"/>
<path d="M55.497 48.72C55.0666 48.7217 54.7189 49.0716 54.72 49.502C54.7211 49.9324 55.0706 50.2806 55.501 50.28C55.9314 50.2795 56.28 49.9304 56.28 49.5C56.2811 49.2923 56.1989 49.0928 56.0517 48.9462C55.9045 48.7996 55.7047 48.7181 55.497 48.72" stroke="#222634" stroke-width="4.5" stroke-linecap="round" stroke-linejoin="round"/>
<path d="M66 49.5V49.5C66 43.701 61.299 39 55.5 39V39C49.701 39 45 43.701 45 49.5V49.5" stroke="#222634" stroke-width="4.5" stroke-linecap="round" stroke-linejoin="round"/>
<path d="M6 63H39" stroke="#222634" stroke-width="4.5" stroke-linecap="round" stroke-linejoin="round"/>
<path d="M36 21.0003V17.2542C36 15.3784 37.1636 13.6994 38.92 13.0408L56.92 6.29092C58.3019 5.77272 59.8501 5.9651 61.0632 6.80575C62.2762 7.64641 63 9.02847 63 10.5044V30.0003" stroke="#222634" stroke-width="4.5" stroke-linecap="round" stroke-linejoin="round"/>
</svg>
