<svg width="36" height="34" viewBox="0 0 36 34" fill="none" xmlns="http://www.w3.org/2000/svg">
<path d="M32.654 23.3982L32.6539 23.398L22.4422 5.52658C20.4786 2.08768 15.522 2.08749 13.5582 5.52603C13.5581 5.52621 13.558 5.5264 13.5578 5.52658L3.34653 23.3974C1.3958 26.8084 3.85918 31.0529 7.78801 31.0529H28.212C32.1404 31.0529 34.6019 26.8082 32.654 23.3982Z" fill="#FF511A" stroke="#FFEEE9" stroke-width="4" stroke-linecap="round" stroke-linejoin="round"/>
<path d="M18.0007 18.4935V13.5068" stroke="white" stroke-width="1.5" stroke-linecap="round" stroke-linejoin="round"/>
<path d="M17.9993 22.5003C17.8153 22.5003 17.666 22.6497 17.6673 22.8337C17.6673 23.0177 17.8167 23.167 18.0007 23.167C18.1847 23.167 18.334 23.0177 18.334 22.8337C18.334 22.6497 18.1847 22.5003 17.9993 22.5003" stroke="white" stroke-width="1.5" stroke-linecap="round" stroke-linejoin="round"/>
</svg>
