<svg width="52" height="52" viewBox="0 0 52 52" fill="none" xmlns="http://www.w3.org/2000/svg">
<rect x="6" y="6" width="40" height="40" rx="20" fill="#222634"/>
<path fill-rule="evenodd" clip-rule="evenodd" d="M24.6614 21.3442L21.0599 23.345C20.7091 23.5387 20.4913 23.9077 20.4913 24.3084C20.4913 24.7091 20.7091 25.0781 21.0599 25.2718L24.6614 27.2726C25.4942 27.7338 26.5058 27.7338 27.3386 27.2726L30.9401 25.2718C31.2909 25.0781 31.5087 24.7091 31.5087 24.3084C31.5087 23.9077 31.2909 23.5387 30.9401 23.345L27.3386 21.3442C26.5058 20.883 25.4942 20.883 24.6614 21.3442Z" stroke="#51B7AF" stroke-width="1.5" stroke-linecap="round" stroke-linejoin="round"/>
<path d="M31.5023 24.3064V27.0005" stroke="#51B7AF" stroke-width="1.5" stroke-linecap="round" stroke-linejoin="round"/>
<path d="M22.4985 26.0662V28.4522C22.4983 29.0047 22.7747 29.5208 23.2348 29.8267L24.1712 30.45C25.2788 31.1866 26.7202 31.1866 27.8278 30.45L28.7641 29.8267C29.2247 29.521 29.5015 29.0049 29.5015 28.4522V26.0672" stroke="#51B7AF" stroke-width="1.5" stroke-linecap="round" stroke-linejoin="round"/>
<rect x="3" y="3" width="46" height="46" rx="23" stroke="#222634" stroke-opacity="0.15" stroke-width="6"/>
</svg>
