<svg width="44" height="44" viewBox="0 0 44 44" fill="none" xmlns="http://www.w3.org/2000/svg">
<rect x="6" y="6" width="32" height="32" rx="16" fill="#51B7AF"/>
<path d="M26 12V16" stroke="#222634" stroke-width="1.5" stroke-linecap="round" stroke-linejoin="round"/>
<path d="M18 12V16" stroke="#222634" stroke-width="1.5" stroke-linecap="round" stroke-linejoin="round"/>
<path d="M13 19H31" stroke="#222634" stroke-width="1.5" stroke-linecap="round" stroke-linejoin="round"/>
<path fill-rule="evenodd" clip-rule="evenodd" d="M29 14H15C13.895 14 13 14.895 13 16V29C13 30.105 13.895 31 15 31H29C30.105 31 31 30.105 31 29V16C31 14.895 30.105 14 29 14Z" stroke="#222634" stroke-width="1.5" stroke-linecap="round" stroke-linejoin="round"/>
<path d="M17.013 22.729C16.875 22.729 16.763 22.841 16.764 22.979C16.764 23.117 16.876 23.229 17.014 23.229C17.152 23.229 17.264 23.117 17.264 22.979C17.264 22.841 17.152 22.729 17.013 22.729" stroke="#222634" stroke-width="1.5" stroke-linecap="round" stroke-linejoin="round"/>
<path d="M22.013 22.729C21.875 22.729 21.763 22.841 21.764 22.979C21.764 23.117 21.876 23.229 22.014 23.229C22.152 23.229 22.264 23.117 22.264 22.979C22.264 22.841 22.152 22.729 22.013 22.729" stroke="#222634" stroke-width="1.5" stroke-linecap="round" stroke-linejoin="round"/>
<path d="M27.013 22.729C26.875 22.729 26.763 22.841 26.764 22.979C26.764 23.117 26.876 23.229 27.014 23.229C27.152 23.229 27.264 23.117 27.264 22.979C27.264 22.841 27.152 22.729 27.013 22.729" stroke="#222634" stroke-width="1.5" stroke-linecap="round" stroke-linejoin="round"/>
<path d="M17.013 26.729C16.875 26.729 16.763 26.841 16.764 26.979C16.764 27.117 16.876 27.229 17.014 27.229C17.152 27.229 17.264 27.117 17.264 26.979C17.264 26.841 17.152 26.729 17.013 26.729" stroke="#222634" stroke-width="1.5" stroke-linecap="round" stroke-linejoin="round"/>
<path d="M22.013 26.729C21.875 26.729 21.763 26.841 21.764 26.979C21.764 27.117 21.876 27.229 22.014 27.229C22.152 27.229 22.264 27.117 22.264 26.979C22.264 26.841 22.152 26.729 22.013 26.729" stroke="#222634" stroke-width="1.5" stroke-linecap="round" stroke-linejoin="round"/>
<rect x="3" y="3" width="38" height="38" rx="19" stroke="#51B7AF" stroke-opacity="0.3" stroke-width="6"/>
</svg>
