<svg width="1080" height="1080" viewBox="0 0 1080 1080" fill="none" xmlns="http://www.w3.org/2000/svg">
<path d="M651.972 317V551H600.277V394.831L651.972 317Z" fill="#222634"/>
<path d="M428 317V551H479.695V394.831L428 317Z" fill="#222634"/>
<path d="M568.599 374.07L539.777 317L511.044 373.921C483.353 432.957 455.662 491.964 428 551H479.695L482.788 544.834H597.212C598.253 546.889 599.294 548.945 600.305 551H652C624.19 492.023 596.409 433.047 568.599 374.07ZM508.724 493.066C519.105 472.365 529.486 451.663 539.866 430.992C550.276 451.693 560.717 472.394 571.127 493.066H508.724Z" fill="#51B7AF"/>
<path d="M174.34 720.442L147.04 628.042H158.66L181.48 710.222L203.18 628.042H215.92L237.62 710.502L260.44 628.042H271.5L244.34 720.442H230.48L214.1 660.522L209.34 639.662H209.2L204.44 660.522L188.2 720.442H174.34ZM359.686 720.442H347.786L337.986 694.822H296.126L286.326 720.442H274.566L310.546 628.042H323.846L359.686 720.442ZM300.186 684.322H333.926L316.986 638.822L300.186 684.322ZM412.563 721.842C403.79 721.842 396.183 719.929 389.743 716.102C383.396 712.182 378.45 706.676 374.903 699.582C371.45 692.489 369.723 684.042 369.723 674.242C369.723 664.442 371.543 655.996 375.183 648.902C378.916 641.809 384.096 636.349 390.723 632.522C397.35 628.602 404.956 626.642 413.543 626.642C422.69 626.642 430.11 628.369 435.803 631.822C441.59 635.276 446.256 640.596 449.803 647.782L439.583 653.382C437.53 648.062 434.263 644.049 429.783 641.342C425.396 638.542 419.983 637.142 413.543 637.142C407.29 637.142 401.736 638.636 396.883 641.622C392.123 644.516 388.343 648.762 385.543 654.362C382.836 659.869 381.483 666.496 381.483 674.242C381.483 681.989 382.65 688.662 384.983 694.262C387.41 699.769 390.956 704.016 395.623 707.002C400.383 709.896 406.17 711.342 412.983 711.342C416.81 711.342 420.356 710.876 423.623 709.942C426.983 708.916 429.876 707.422 432.303 705.462C434.823 703.502 436.783 701.029 438.183 698.042C439.583 695.056 440.283 691.556 440.283 687.542V684.322H410.883V673.822H450.503V720.442H441.683L441.123 703.222L443.503 703.642C441.076 709.429 437.25 713.909 432.023 717.082C426.796 720.256 420.31 721.842 412.563 721.842ZM550.272 720.442H538.372L528.572 694.822H486.712L476.912 720.442H465.152L501.132 628.042H514.432L550.272 720.442ZM490.772 684.322H524.512L507.572 638.822L490.772 684.322ZM598.874 628.042C613.34 628.042 624.68 632.056 632.894 640.082C641.2 648.016 645.354 659.402 645.354 674.242C645.354 689.082 641.2 700.516 632.894 708.542C624.68 716.476 613.34 720.442 598.874 720.442H569.054V628.042H598.874ZM599.994 709.942C610.54 709.942 618.754 706.816 624.634 700.562C630.607 694.216 633.594 685.442 633.594 674.242C633.594 663.042 630.607 654.316 624.634 648.062C618.754 641.716 610.54 638.542 599.994 638.542H580.254V709.942H599.994ZM669.952 720.442V628.042H734.772V638.542H681.152V668.362H722.872V678.862H681.152V709.942H736.872V720.442H669.952ZM848.549 628.042V720.442H837.909V662.342L839.169 637.982H839.029L808.649 720.442H799.129L768.749 637.982H768.609L769.869 662.342V720.442H759.229V628.042H776.449L796.749 684.182L803.749 707.282H804.029L811.169 684.322L831.329 628.042H848.549ZM942.282 628.042L909.242 684.322V720.442H898.042V684.322L865.002 628.042H878.302L896.222 659.682L903.642 672.842L911.062 659.682L928.982 628.042H942.282Z" fill="#222634"/>
</svg>
