<?xml version="1.0" encoding="utf-8"?>
<!-- Generator: Adobe Illustrator 27.5.0, SVG Export Plug-In . SVG Version: 6.00 Build 0)  -->
<svg version="1.0" id="Camada_2" xmlns="http://www.w3.org/2000/svg" xmlns:xlink="http://www.w3.org/1999/xlink" x="0px" y="0px"
	 viewBox="0 0 1500 1500" style="enable-background:new 0 0 1500 1500;" xml:space="preserve">
<style type="text/css">
	.st0{fill:#222634;}
	.st1{fill:#51B7AF;}
</style>
<g>
	<polygon class="st0" points="1126.5,357.2 1126.5,1142.8 952.7,1142.8 952.7,618.5 	"/>
	<polygon class="st0" points="373.5,357.2 373.5,1142.8 547.3,1142.8 547.3,618.5 	"/>
	<path class="st1" d="M846.2,548.8l-96.9-191.6l-96.6,191.1c-93.1,198.2-186.2,396.3-279.2,594.5h173.8l10.4-20.7h384.7
		c3.5,6.9,7,13.8,10.4,20.7h173.8C1033.1,944.8,939.7,746.8,846.2,548.8z M644.9,948.3c34.9-69.5,69.8-139,104.7-208.4
		c35,69.5,70.1,139,105.1,208.4H644.9z"/>
</g>
</svg>
