<svg width="1819" height="345" viewBox="0 0 1819 345" fill="none" xmlns="http://www.w3.org/2000/svg">
<path d="M256.977 80V265H216.129V141.533L256.977 80Z" fill="#222634"/>
<path d="M80 80V265H120.848V141.533L80 80Z" fill="#222634"/>
<path d="M191.098 125.12L168.324 80L145.62 125.002C123.739 171.676 101.858 218.326 80 265H120.848L123.292 260.125H213.708C214.53 261.75 215.353 263.375 216.152 265H257C235.025 218.373 213.073 171.746 191.098 125.12ZM143.787 219.197C151.989 202.831 160.192 186.464 168.394 170.122C176.62 186.488 184.87 202.854 193.096 219.197H143.787Z" fill="#51B7AF"/>
<path d="M386.288 254.5L337.928 90.82H358.512L398.936 236.396L437.376 90.82H459.944L498.384 236.892L538.808 90.82H558.4L510.288 254.5H485.736L456.72 148.356L448.288 111.404H448.04L439.608 148.356L410.84 254.5H386.288ZM714.615 254.5H693.535L676.175 209.116H602.023L584.663 254.5H563.831L627.567 90.82H651.127L714.615 254.5ZM609.215 190.516H668.983L638.975 109.916L609.215 190.516ZM808.283 256.98C792.742 256.98 779.267 253.591 767.859 246.812C756.617 239.868 747.854 230.113 741.571 217.548C735.454 204.983 732.395 190.02 732.395 172.66C732.395 155.3 735.619 140.337 742.067 127.772C748.681 115.207 757.857 105.535 769.595 98.756C781.334 91.812 794.809 88.34 810.019 88.34C826.222 88.34 839.366 91.3987 849.451 97.516C859.702 103.633 867.969 113.057 874.251 125.788L856.147 135.708C852.51 126.284 846.723 119.175 838.787 114.38C831.017 109.42 821.427 106.94 810.019 106.94C798.942 106.94 789.105 109.585 780.507 114.876C772.075 120.001 765.379 127.524 760.419 137.444C755.625 147.199 753.227 158.937 753.227 172.66C753.227 186.383 755.294 198.204 759.427 208.124C763.726 217.879 770.009 225.401 778.275 230.692C786.707 235.817 796.958 238.38 809.027 238.38C815.806 238.38 822.089 237.553 827.875 235.9C833.827 234.081 838.953 231.436 843.251 227.964C847.715 224.492 851.187 220.111 853.667 214.82C856.147 209.529 857.387 203.329 857.387 196.22V190.516H805.307V171.916H875.491V254.5H859.867L858.875 223.996L863.091 224.74C858.793 234.991 852.014 242.927 842.755 248.548C833.497 254.169 822.006 256.98 808.283 256.98ZM1052.22 254.5H1031.14L1013.78 209.116H939.632L922.272 254.5H901.44L965.176 90.82H988.736L1052.22 254.5ZM946.824 190.516H1006.59L976.584 109.916L946.824 190.516ZM1138.32 90.82C1163.95 90.82 1184.03 97.9293 1198.58 112.148C1213.3 126.201 1220.65 146.372 1220.65 172.66C1220.65 198.948 1213.3 219.201 1198.58 233.42C1184.03 247.473 1163.95 254.5 1138.32 254.5H1085.49V90.82H1138.32ZM1140.3 235.9C1158.99 235.9 1173.53 230.361 1183.95 219.284C1194.53 208.041 1199.82 192.5 1199.82 172.66C1199.82 152.82 1194.53 137.361 1183.95 126.284C1173.53 115.041 1158.99 109.42 1140.3 109.42H1105.33V235.9H1140.3ZM1264.23 254.5V90.82H1379.05V109.42H1284.07V162.244H1357.97V180.844H1284.07V235.9H1382.77V254.5H1264.23ZM1580.6 90.82V254.5H1561.75V151.58L1563.99 108.428H1563.74L1509.92 254.5H1493.06L1439.24 108.428H1438.99L1441.23 151.58V254.5H1422.38V90.82H1452.88L1488.84 190.268L1501.24 231.188H1501.74L1514.39 190.516L1550.1 90.82H1580.6ZM1746.64 90.82L1688.11 190.516V254.5H1668.27V190.516L1609.75 90.82H1633.31L1665.05 146.868L1678.19 170.18L1691.34 146.868L1723.08 90.82H1746.64Z" fill="#222634"/>
</svg>
