<svg width="56" height="56" viewBox="0 0 56 56" fill="none" xmlns="http://www.w3.org/2000/svg">
<path d="M48.1782 6.23975L30.6892 19.2291L33.9233 11.5655L48.1782 6.23975Z" fill="#E2761B"/>
<path d="M7.80404 6.23975L25.1524 19.3521L22.0765 11.5655L7.80404 6.23975Z" fill="#E4761B"/>
<path d="M41.8856 36.349L37.2278 43.4852L47.1939 46.2272L50.0589 36.5072L41.8856 36.349Z" fill="#E4761B"/>
<path d="M5.95847 36.5072L8.80593 46.2272L18.772 43.4852L14.1142 36.349L5.95847 36.5072Z" fill="#E4761B"/>
<path d="M18.2096 24.2912L15.4324 28.4921L25.3282 28.9315L24.9767 18.2975L18.2096 24.2912Z" fill="#E4761B"/>
<path d="M37.7727 24.2912L30.9177 18.1745L30.6892 28.9315L40.5674 28.4921L37.7727 24.2912Z" fill="#E4761B"/>
<path d="M18.772 43.4852L24.713 40.585L19.5806 36.5775L18.772 43.4852Z" fill="#E4761B"/>
<path d="M31.2692 40.585L37.2278 43.4852L36.4016 36.5775L31.2692 40.585Z" fill="#E4761B"/>
<path d="M37.2278 43.4852L31.2692 40.585L31.7438 44.4695L31.691 46.1041L37.2278 43.4852Z" fill="#D7C1B3"/>
<path d="M18.772 43.4852L24.3088 46.1041L24.2736 44.4695L24.713 40.585L18.772 43.4852Z" fill="#D7C1B3"/>
<path d="M24.3966 34.0112L19.4399 32.5524L22.9378 30.9529L24.3966 34.0112Z" fill="#233447"/>
<path d="M31.5856 34.0112L33.0445 30.9529L36.5598 32.5524L31.5856 34.0112Z" fill="#233447"/>
<path d="M18.772 43.4852L19.6157 36.349L14.1142 36.5072L18.772 43.4852Z" fill="#CD6116"/>
<path d="M36.3841 36.349L37.2278 43.4852L41.8857 36.5072L36.3841 36.349Z" fill="#CD6116"/>
<path d="M40.5674 28.4921L30.6892 28.9315L31.6032 34.0112L33.062 30.9529L36.5774 32.5524L40.5674 28.4921Z" fill="#CD6116"/>
<path d="M19.4399 32.5524L22.9553 30.9529L24.3966 34.0112L25.3282 28.9315L15.4324 28.4921L19.4399 32.5524Z" fill="#CD6116"/>
<path d="M15.4324 28.4921L19.5806 36.5775L19.4399 32.5524L15.4324 28.4921Z" fill="#E4751F"/>
<path d="M36.5774 32.5524L36.4016 36.5775L40.5674 28.4921L36.5774 32.5524Z" fill="#E4751F"/>
<path d="M25.3282 28.9315L24.3966 34.0112L25.5567 40.005L25.8204 32.1129L25.3282 28.9315Z" fill="#E4751F"/>
<path d="M30.6892 28.9315L30.2146 32.0954L30.4255 40.005L31.6032 34.0112L30.6892 28.9315Z" fill="#E4751F"/>
<path d="M31.6032 34.0112L30.4255 40.005L31.2692 40.585L36.4016 36.5775L36.5774 32.5524L31.6032 34.0112Z" fill="#F6851B"/>
<path d="M19.4399 32.5524L19.5806 36.5775L24.713 40.585L25.5567 40.005L24.3966 34.0112L19.4399 32.5524Z" fill="#F6851B"/>
<path d="M31.691 46.1041L31.7438 44.4695L31.3044 44.0828H24.6779L24.2736 44.4695L24.3088 46.1041L18.772 43.4852L20.7055 45.0671L24.6251 47.7915H31.3571L35.2943 45.0671L37.2278 43.4852L31.691 46.1041Z" fill="#C0AD9E"/>
<path d="M31.2692 40.585L30.4255 40.005H25.5567L24.713 40.585L24.2736 44.4695L24.6779 44.0828H31.3044L31.7438 44.4695L31.2692 40.585Z" fill="#161616"/>
<path d="M48.9164 20.0728L50.4104 12.9014L48.1782 6.23975L31.2692 18.7897L37.7727 24.2912L46.9654 26.9805L49.0043 24.6076L48.1254 23.9748L49.5316 22.6917L48.4418 21.848L49.848 20.7758L48.9164 20.0728Z" fill="#763D16"/>
<path d="M5.58936 12.9014L7.08339 20.0728L6.13424 20.7758L7.54039 21.848L6.4682 22.6917L7.87435 23.9748L6.99551 24.6076L9.01685 26.9805L18.2096 24.2912L24.713 18.7897L7.80404 6.23975L5.58936 12.9014Z" fill="#763D16"/>
<path d="M46.9654 26.9805L37.7727 24.2912L40.5674 28.4921L36.4016 36.5775L41.8857 36.5072H50.0589L46.9654 26.9805Z" fill="#F6851B"/>
<path d="M18.2096 24.2912L9.01685 26.9805L5.95847 36.5072H14.1142L19.5806 36.5775L15.4324 28.4921L18.2096 24.2912Z" fill="#F6851B"/>
<path d="M30.6892 28.9315L31.2692 18.7897L33.9409 11.5655L22.0765 11.5655L24.713 18.7897L25.3282 28.9315L25.5391 32.1305L25.5567 40.005H30.4255L30.4607 32.1305L30.6892 28.9315Z" fill="#F6851B"/>
<g style="mix-blend-mode:color">
<path d="M48.1782 6.23975L30.6892 19.2291L33.9233 11.5655L48.1782 6.23975Z" fill="#00501E"/>
<path d="M7.80404 6.23975L25.1524 19.3521L22.0765 11.5655L7.80404 6.23975Z" fill="#00501E"/>
<path d="M41.8856 36.349L37.2278 43.4852L47.1939 46.2272L50.0589 36.5072L41.8856 36.349Z" fill="#00501E"/>
<path d="M5.95847 36.5072L8.80593 46.2272L18.772 43.4852L14.1142 36.349L5.95847 36.5072Z" fill="#00501E"/>
<path d="M18.2096 24.2912L15.4324 28.4921L25.3282 28.9315L24.9767 18.2975L18.2096 24.2912Z" fill="#00501E"/>
<path d="M37.7727 24.2912L30.9177 18.1745L30.6892 28.9315L40.5674 28.4921L37.7727 24.2912Z" fill="#00501E"/>
<path d="M18.772 43.4852L24.713 40.585L19.5806 36.5775L18.772 43.4852Z" fill="#00501E"/>
<path d="M31.2692 40.585L37.2278 43.4852L36.4016 36.5775L31.2692 40.585Z" fill="#00501E"/>
<path d="M37.2278 43.4852L31.2692 40.585L31.7438 44.4695L31.691 46.1041L37.2278 43.4852Z" fill="#00501E"/>
<path d="M18.772 43.4852L24.3088 46.1041L24.2736 44.4695L24.713 40.585L18.772 43.4852Z" fill="#00501E"/>
<path d="M24.3966 34.0112L19.4399 32.5524L22.9378 30.9529L24.3966 34.0112Z" fill="#00501E"/>
<path d="M31.5856 34.0112L33.0445 30.9529L36.5598 32.5524L31.5856 34.0112Z" fill="#00501E"/>
<path d="M18.772 43.4852L19.6157 36.349L14.1142 36.5072L18.772 43.4852Z" fill="#00501E"/>
<path d="M36.3841 36.349L37.2278 43.4852L41.8857 36.5072L36.3841 36.349Z" fill="#00501E"/>
<path d="M40.5674 28.4921L30.6892 28.9315L31.6032 34.0112L33.062 30.9529L36.5774 32.5524L40.5674 28.4921Z" fill="#00501E"/>
<path d="M19.4399 32.5524L22.9553 30.9529L24.3966 34.0112L25.3282 28.9315L15.4324 28.4921L19.4399 32.5524Z" fill="#00501E"/>
<path d="M15.4324 28.4921L19.5806 36.5775L19.4399 32.5524L15.4324 28.4921Z" fill="#00501E"/>
<path d="M36.5774 32.5524L36.4016 36.5775L40.5674 28.4921L36.5774 32.5524Z" fill="#00501E"/>
<path d="M25.3282 28.9315L24.3966 34.0112L25.5567 40.005L25.8204 32.1129L25.3282 28.9315Z" fill="#00501E"/>
<path d="M30.6892 28.9315L30.2146 32.0954L30.4255 40.005L31.6032 34.0112L30.6892 28.9315Z" fill="#00501E"/>
<path d="M31.6032 34.0112L30.4255 40.005L31.2692 40.585L36.4016 36.5775L36.5774 32.5524L31.6032 34.0112Z" fill="#00501E"/>
<path d="M19.4399 32.5524L19.5806 36.5775L24.713 40.585L25.5567 40.005L24.3966 34.0112L19.4399 32.5524Z" fill="#00501E"/>
<path d="M31.691 46.1041L31.7438 44.4695L31.3044 44.0828H24.6779L24.2736 44.4695L24.3088 46.1041L18.772 43.4852L20.7055 45.0671L24.6251 47.7915H31.3571L35.2943 45.0671L37.2278 43.4852L31.691 46.1041Z" fill="#00501E"/>
<path d="M31.2692 40.585L30.4255 40.005H25.5567L24.713 40.585L24.2736 44.4695L24.6779 44.0828H31.3044L31.7438 44.4695L31.2692 40.585Z" fill="#00501E"/>
<path d="M48.9164 20.0728L50.4104 12.9014L48.1782 6.23975L31.2692 18.7897L37.7727 24.2912L46.9654 26.9805L49.0043 24.6076L48.1254 23.9748L49.5316 22.6917L48.4418 21.848L49.848 20.7758L48.9164 20.0728Z" fill="#00501E"/>
<path d="M5.58936 12.9014L7.08339 20.0728L6.13424 20.7758L7.54039 21.848L6.4682 22.6917L7.87435 23.9748L6.99551 24.6076L9.01685 26.9805L18.2096 24.2912L24.713 18.7897L7.80404 6.23975L5.58936 12.9014Z" fill="#00501E"/>
<path d="M46.9654 26.9805L37.7727 24.2912L40.5674 28.4921L36.4016 36.5775L41.8857 36.5072H50.0589L46.9654 26.9805Z" fill="#00501E"/>
<path d="M18.2096 24.2912L9.01685 26.9805L5.95847 36.5072H14.1142L19.5806 36.5775L15.4324 28.4921L18.2096 24.2912Z" fill="#00501E"/>
<path d="M30.6892 28.9315L31.2692 18.7897L33.9409 11.5655L22.0765 11.5655L24.713 18.7897L25.3282 28.9315L25.5391 32.1305L25.5567 40.005H30.4255L30.4607 32.1305L30.6892 28.9315Z" fill="#00501E"/>
</g>
</svg>
