<svg width="56" height="56" viewBox="0 0 56 56" fill="none" xmlns="http://www.w3.org/2000/svg">
<path d="M48.1783 6.23975L30.6893 19.2291L33.9234 11.5655L48.1783 6.23975Z" fill="#E2761B"/>
<path d="M7.80417 6.23975L25.1526 19.3521L22.0766 11.5655L7.80417 6.23975Z" fill="#E4761B"/>
<path d="M41.8858 36.349L37.2279 43.4852L47.194 46.2272L50.059 36.5072L41.8858 36.349Z" fill="#E4761B"/>
<path d="M5.95859 36.5072L8.80605 46.2272L18.7722 43.4852L14.1143 36.349L5.95859 36.5072Z" fill="#E4761B"/>
<path d="M18.2097 24.2912L15.4325 28.4921L25.3283 28.9315L24.9768 18.2975L18.2097 24.2912Z" fill="#E4761B"/>
<path d="M37.7728 24.2912L30.9178 18.1745L30.6893 28.9315L40.5675 28.4921L37.7728 24.2912Z" fill="#E4761B"/>
<path d="M18.7722 43.4852L24.7131 40.585L19.5807 36.5775L18.7722 43.4852Z" fill="#E4761B"/>
<path d="M31.2693 40.585L37.2279 43.4852L36.4018 36.5775L31.2693 40.585Z" fill="#E4761B"/>
<path d="M37.2279 43.4852L31.2693 40.585L31.7439 44.4695L31.6912 46.1041L37.2279 43.4852Z" fill="#D7C1B3"/>
<path d="M18.7722 43.4852L24.3089 46.1041L24.2737 44.4695L24.7131 40.585L18.7722 43.4852Z" fill="#D7C1B3"/>
<path d="M24.3968 34.0112L19.4401 32.5524L22.9379 30.9529L24.3968 34.0112Z" fill="#233447"/>
<path d="M31.5857 34.0112L33.0446 30.9529L36.56 32.5524L31.5857 34.0112Z" fill="#233447"/>
<path d="M18.7722 43.4852L19.6158 36.349L14.1143 36.5072L18.7722 43.4852Z" fill="#CD6116"/>
<path d="M36.3842 36.349L37.2279 43.4852L41.8858 36.5072L36.3842 36.349Z" fill="#CD6116"/>
<path d="M40.5675 28.4921L30.6893 28.9315L31.6033 34.0112L33.0622 30.9529L36.5775 32.5524L40.5675 28.4921Z" fill="#CD6116"/>
<path d="M19.4401 32.5524L22.9555 30.9529L24.3968 34.0112L25.3283 28.9315L15.4325 28.4921L19.4401 32.5524Z" fill="#CD6116"/>
<path d="M15.4325 28.4921L19.5807 36.5775L19.4401 32.5524L15.4325 28.4921Z" fill="#E4751F"/>
<path d="M36.5775 32.5524L36.4018 36.5775L40.5675 28.4921L36.5775 32.5524Z" fill="#E4751F"/>
<path d="M25.3283 28.9315L24.3968 34.0112L25.5568 40.005L25.8205 32.1129L25.3283 28.9315Z" fill="#E4751F"/>
<path d="M30.6893 28.9315L30.2147 32.0954L30.4256 40.005L31.6033 34.0112L30.6893 28.9315Z" fill="#E4751F"/>
<path d="M31.6033 34.0112L30.4256 40.005L31.2693 40.585L36.4018 36.5775L36.5775 32.5524L31.6033 34.0112Z" fill="#F6851B"/>
<path d="M19.4401 32.5524L19.5807 36.5775L24.7131 40.585L25.5568 40.005L24.3968 34.0112L19.4401 32.5524Z" fill="#F6851B"/>
<path d="M31.6912 46.1041L31.7439 44.4695L31.3045 44.0828H24.678L24.2737 44.4695L24.3089 46.1041L18.7722 43.4852L20.7056 45.0671L24.6253 47.7915H31.3572L35.2944 45.0671L37.2279 43.4852L31.6912 46.1041Z" fill="#C0AD9E"/>
<path d="M31.2693 40.585L30.4256 40.005H25.5568L24.7131 40.585L24.2737 44.4695L24.678 44.0828H31.3045L31.7439 44.4695L31.2693 40.585Z" fill="#161616"/>
<path d="M48.9165 20.0728L50.4106 12.9014L48.1783 6.23975L31.2693 18.7897L37.7728 24.2912L46.9655 26.9805L49.0044 24.6076L48.1256 23.9748L49.5317 22.6917L48.442 21.848L49.8481 20.7758L48.9165 20.0728Z" fill="#763D16"/>
<path d="M5.58948 12.9014L7.08351 20.0728L6.13436 20.7758L7.54051 21.848L6.46832 22.6917L7.87448 23.9748L6.99563 24.6076L9.01697 26.9805L18.2097 24.2912L24.7131 18.7897L7.80417 6.23975L5.58948 12.9014Z" fill="#763D16"/>
<path d="M46.9655 26.9805L37.7728 24.2912L40.5675 28.4921L36.4018 36.5775L41.8858 36.5072H50.059L46.9655 26.9805Z" fill="#F6851B"/>
<path d="M18.2097 24.2912L9.01697 26.9805L5.95859 36.5072H14.1143L19.5807 36.5775L15.4325 28.4921L18.2097 24.2912Z" fill="#F6851B"/>
<path d="M30.6893 28.9315L31.2693 18.7897L33.941 11.5655L22.0766 11.5655L24.7131 18.7897L25.3283 28.9315L25.5392 32.1305L25.5568 40.005H30.4256L30.4608 32.1305L30.6893 28.9315Z" fill="#F6851B"/>
<g style="mix-blend-mode:color">
<path d="M48.1783 6.23975L30.6893 19.2291L33.9234 11.5655L48.1783 6.23975Z" fill="#51B7AF"/>
<path d="M7.80417 6.23975L25.1526 19.3521L22.0766 11.5655L7.80417 6.23975Z" fill="#51B7AF"/>
<path d="M41.8858 36.349L37.2279 43.4852L47.194 46.2272L50.059 36.5072L41.8858 36.349Z" fill="#51B7AF"/>
<path d="M5.95859 36.5072L8.80605 46.2272L18.7722 43.4852L14.1143 36.349L5.95859 36.5072Z" fill="#51B7AF"/>
<path d="M18.2097 24.2912L15.4325 28.4921L25.3283 28.9315L24.9768 18.2975L18.2097 24.2912Z" fill="#51B7AF"/>
<path d="M37.7728 24.2912L30.9178 18.1745L30.6893 28.9315L40.5675 28.4921L37.7728 24.2912Z" fill="#51B7AF"/>
<path d="M18.7722 43.4852L24.7131 40.585L19.5807 36.5775L18.7722 43.4852Z" fill="#51B7AF"/>
<path d="M31.2693 40.585L37.2279 43.4852L36.4018 36.5775L31.2693 40.585Z" fill="#51B7AF"/>
<path d="M37.2279 43.4852L31.2693 40.585L31.7439 44.4695L31.6912 46.1041L37.2279 43.4852Z" fill="#51B7AF"/>
<path d="M18.7722 43.4852L24.3089 46.1041L24.2737 44.4695L24.7131 40.585L18.7722 43.4852Z" fill="#51B7AF"/>
<path d="M24.3968 34.0112L19.4401 32.5524L22.9379 30.9529L24.3968 34.0112Z" fill="#51B7AF"/>
<path d="M31.5857 34.0112L33.0446 30.9529L36.56 32.5524L31.5857 34.0112Z" fill="#51B7AF"/>
<path d="M18.7722 43.4852L19.6158 36.349L14.1143 36.5072L18.7722 43.4852Z" fill="#51B7AF"/>
<path d="M36.3842 36.349L37.2279 43.4852L41.8858 36.5072L36.3842 36.349Z" fill="#51B7AF"/>
<path d="M40.5675 28.4921L30.6893 28.9315L31.6033 34.0112L33.0622 30.9529L36.5775 32.5524L40.5675 28.4921Z" fill="#51B7AF"/>
<path d="M19.4401 32.5524L22.9555 30.9529L24.3968 34.0112L25.3283 28.9315L15.4325 28.4921L19.4401 32.5524Z" fill="#51B7AF"/>
<path d="M15.4325 28.4921L19.5807 36.5775L19.4401 32.5524L15.4325 28.4921Z" fill="#51B7AF"/>
<path d="M36.5775 32.5524L36.4018 36.5775L40.5675 28.4921L36.5775 32.5524Z" fill="#51B7AF"/>
<path d="M25.3283 28.9315L24.3968 34.0112L25.5568 40.005L25.8205 32.1129L25.3283 28.9315Z" fill="#51B7AF"/>
<path d="M30.6893 28.9315L30.2147 32.0954L30.4256 40.005L31.6033 34.0112L30.6893 28.9315Z" fill="#51B7AF"/>
<path d="M31.6033 34.0112L30.4256 40.005L31.2693 40.585L36.4018 36.5775L36.5775 32.5524L31.6033 34.0112Z" fill="#51B7AF"/>
<path d="M19.4401 32.5524L19.5807 36.5775L24.7131 40.585L25.5568 40.005L24.3968 34.0112L19.4401 32.5524Z" fill="#51B7AF"/>
<path d="M31.6912 46.1041L31.7439 44.4695L31.3045 44.0828H24.678L24.2737 44.4695L24.3089 46.1041L18.7722 43.4852L20.7056 45.0671L24.6253 47.7915H31.3572L35.2944 45.0671L37.2279 43.4852L31.6912 46.1041Z" fill="#51B7AF"/>
<path d="M31.2693 40.585L30.4256 40.005H25.5568L24.7131 40.585L24.2737 44.4695L24.678 44.0828H31.3045L31.7439 44.4695L31.2693 40.585Z" fill="#51B7AF"/>
<path d="M48.9165 20.0728L50.4106 12.9014L48.1783 6.23975L31.2693 18.7897L37.7728 24.2912L46.9655 26.9805L49.0044 24.6076L48.1256 23.9748L49.5317 22.6917L48.442 21.848L49.8481 20.7758L48.9165 20.0728Z" fill="#51B7AF"/>
<path d="M5.58948 12.9014L7.08351 20.0728L6.13436 20.7758L7.54051 21.848L6.46832 22.6917L7.87448 23.9748L6.99563 24.6076L9.01697 26.9805L18.2097 24.2912L24.7131 18.7897L7.80417 6.23975L5.58948 12.9014Z" fill="#51B7AF"/>
<path d="M46.9655 26.9805L37.7728 24.2912L40.5675 28.4921L36.4018 36.5775L41.8858 36.5072H50.059L46.9655 26.9805Z" fill="#51B7AF"/>
<path d="M18.2097 24.2912L9.01697 26.9805L5.95859 36.5072H14.1143L19.5807 36.5775L15.4325 28.4921L18.2097 24.2912Z" fill="#51B7AF"/>
<path d="M30.6893 28.9315L31.2693 18.7897L33.941 11.5655L22.0766 11.5655L24.7131 18.7897L25.3283 28.9315L25.5392 32.1305L25.5568 40.005H30.4256L30.4608 32.1305L30.6893 28.9315Z" fill="#51B7AF"/>
</g>
</svg>
