<svg width="121" height="120" viewBox="0 0 121 120" fill="none" xmlns="http://www.w3.org/2000/svg">
<path d="M104.467 47.6176C108.417 51.5678 108.417 57.9722 104.467 61.9224C100.516 65.8725 94.112 65.8725 90.1618 61.9224C86.2117 57.9722 86.2117 51.5678 90.1618 47.6176C94.112 43.6675 100.516 43.6675 104.467 47.6176" stroke="#00501E" stroke-width="7.5" stroke-linecap="round" stroke-linejoin="round"/>
<path d="M71.512 29.5618C77.5944 35.6442 77.5944 45.5057 71.512 51.5882C65.4296 57.6706 55.5681 57.6706 49.4856 51.5882C43.4032 45.5058 43.4032 35.6443 49.4856 29.5618C55.568 23.4794 65.4296 23.4794 71.512 29.5618" stroke="#00501E" stroke-width="7.5" stroke-linecap="round" stroke-linejoin="round"/>
<path d="M30.8435 47.6176C34.7937 51.5678 34.7937 57.9722 30.8435 61.9224C26.8934 65.8725 20.4889 65.8725 16.5388 61.9224C12.5886 57.9722 12.5886 51.5678 16.5388 47.6176C20.4889 43.6675 26.8934 43.6675 30.8435 47.6176" stroke="#00501E" stroke-width="7.5" stroke-linecap="round" stroke-linejoin="round"/>
<path d="M115.501 95V89.52C115.501 82.615 109.906 77.02 103.001 77.02H98.9961" stroke="#00501E" stroke-width="7.5" stroke-linecap="round" stroke-linejoin="round"/>
<path d="M5.5 95V89.52C5.5 82.615 11.095 77.02 18 77.02H22.005" stroke="#00501E" stroke-width="7.5" stroke-linecap="round" stroke-linejoin="round"/>
<path d="M87.1958 95V86.995C87.1958 77.33 79.3608 69.495 69.6958 69.495H51.3008C41.6358 69.495 33.8008 77.33 33.8008 86.995V95" stroke="#00501E" stroke-width="7.5" stroke-linecap="round" stroke-linejoin="round"/>
</svg>
