<svg width="120" height="120" viewBox="0 0 120 120" fill="none" xmlns="http://www.w3.org/2000/svg">
<path d="M103.963 47.6184C107.913 51.5685 107.913 57.973 103.963 61.9231C100.012 65.8733 93.608 65.8733 89.6579 61.9231C85.7077 57.973 85.7077 51.5685 89.6579 47.6184C93.608 43.6682 100.012 43.6682 103.963 47.6184" stroke="#222634" stroke-width="7.5" stroke-linecap="round" stroke-linejoin="round"/>
<path d="M71.0129 29.5618C77.0953 35.6442 77.0953 45.5057 71.0129 51.5882C64.9305 57.6706 55.069 57.6706 48.9865 51.5882C42.9041 45.5058 42.9041 35.6443 48.9865 29.5618C55.0689 23.4794 64.9305 23.4794 71.0129 29.5618" stroke="#222634" stroke-width="7.5" stroke-linecap="round" stroke-linejoin="round"/>
<path d="M30.3423 47.6184C34.2925 51.5685 34.2925 57.973 30.3423 61.9231C26.3922 65.8733 19.9877 65.8733 16.0376 61.9231C12.0874 57.973 12.0874 51.5685 16.0376 47.6184C19.9877 43.6682 26.3922 43.6682 30.3423 47.6184" stroke="#222634" stroke-width="7.5" stroke-linecap="round" stroke-linejoin="round"/>
<path d="M115 94.999V89.519C115 82.614 109.405 77.019 102.5 77.019H98.4949" stroke="#222634" stroke-width="7.5" stroke-linecap="round" stroke-linejoin="round"/>
<path d="M5 94.999V89.519C5 82.614 10.595 77.019 17.5 77.019H21.505" stroke="#222634" stroke-width="7.5" stroke-linecap="round" stroke-linejoin="round"/>
<path d="M86.6949 94.9996V86.9946C86.6949 77.3296 78.8599 69.4946 69.1949 69.4946H50.7999C41.1349 69.4946 33.2999 77.3296 33.2999 86.9946V94.9996" stroke="#222634" stroke-width="7.5" stroke-linecap="round" stroke-linejoin="round"/>
</svg>
