<svg width="56" height="56" viewBox="0 0 56 56" fill="none" xmlns="http://www.w3.org/2000/svg">
<path fill-rule="evenodd" clip-rule="evenodd" d="M39.6715 49.0089H16.3285C11.1717 49.0089 6.99127 44.8285 6.99127 39.6717V20.9972C6.99127 18.4188 9.08148 16.3286 11.6599 16.3286H44.3402C46.9186 16.3286 49.0088 18.4188 49.0088 20.9972V39.6717C49.0088 44.8285 44.8284 49.0089 39.6715 49.0089Z" stroke="#222634" stroke-width="3.5" stroke-linecap="round" stroke-linejoin="round"/>
<path d="M18.6628 16.3289V11.6603C18.6628 9.08191 20.753 6.9917 23.3314 6.9917H32.6686C35.247 6.9917 37.3372 9.08191 37.3372 11.6603V16.3289" stroke="#222634" stroke-width="3.5" stroke-linecap="round" stroke-linejoin="round"/>
<rect x="23.3314" y="25.665" width="9.33722" height="7.00292" rx="1.16667" stroke="#222634" stroke-width="3.5" stroke-linecap="round" stroke-linejoin="round"/>
<path d="M32.6686 29.1676H40.8387C45.3509 29.1676 49.0088 25.5098 49.0088 20.9976V20.9976" stroke="#222634" stroke-width="3.5" stroke-linecap="round" stroke-linejoin="round"/>
<path d="M23.3314 29.1676H15.1613C10.6491 29.1676 6.99127 25.5098 6.99127 20.9976V20.9976" stroke="#222634" stroke-width="3.5" stroke-linecap="round" stroke-linejoin="round"/>
</svg>
