<svg width="56" height="56" viewBox="0 0 56 56" fill="none" xmlns="http://www.w3.org/2000/svg">
<path fill-rule="evenodd" clip-rule="evenodd" d="M39.6715 49.0045H16.3284C11.1716 49.0045 6.99121 44.8241 6.99121 39.6673V20.9928C6.99121 18.4144 9.08142 16.3242 11.6598 16.3242H44.3401C46.9185 16.3242 49.0087 18.4144 49.0087 20.9928V39.6673C49.0087 44.8241 44.8283 49.0045 39.6715 49.0045Z" stroke="#00501E" stroke-width="3.5" stroke-linecap="round" stroke-linejoin="round"/>
<path d="M18.6631 16.3284V11.6598C18.6631 9.08142 20.7533 6.99121 23.3317 6.99121H32.6689C35.2473 6.99121 37.3375 9.08142 37.3375 11.6598V16.3284" stroke="#00501E" stroke-width="3.5" stroke-linecap="round" stroke-linejoin="round"/>
<rect x="23.332" y="25.6621" width="9.33722" height="7.00292" rx="1.16667" stroke="#00501E" stroke-width="3.5" stroke-linecap="round" stroke-linejoin="round"/>
<path d="M32.668 29.1652H40.838C45.3502 29.1652 49.0081 25.5073 49.0081 20.9951V20.9951" stroke="#00501E" stroke-width="3.5" stroke-linecap="round" stroke-linejoin="round"/>
<path d="M23.3313 29.1652H15.1613C10.6491 29.1652 6.99121 25.5073 6.99121 20.9951V20.9951" stroke="#00501E" stroke-width="3.5" stroke-linecap="round" stroke-linejoin="round"/>
</svg>
